# AST/ASF file generated using VICON BodyLanguage
# -----------------------------------------------
:version 1.10
:name VICON
:units
  mass 1.0
  length 0.45
  angle deg
:documentation
   .ast/.asf automatically generated from VICON data using
   VICON BodyBuilder and BodyLanguage model FoxedUp or BRILLIANT.MOD
:root
   order TX TY TZ RX RY RZ
   axis XYZ
   position 0 0 0  
   orientation 0 0 0 
:bonedata
  begin
     id 1 
     name lhipjoint
     direction 0.627457 -0.725269 0.283342 
     length 2.53237 
     axis 0 0 0  XYZ
  end
  begin
     id 2 
     name lfemur
     direction 0.34202 -0.939693 0  
     length 7.32496  
     axis 0 0 20  XYZ
    dof rx ry rz
    limits (-160.0 20.0)
           (-70.0 70.0)
           (-60.0 70.0)
  end
  begin
     id 3 
     name ltibia
     direction 0.34202 -0.939693 0   
     length 7.69674   
     axis 0 0 20   XYZ
    dof rx
    limits (-10.0 170.0)
  end
  begin
     id 4 
     name lfoot
     direction 0.127289 -0.349722 0.928166   
     length 1.8612   
     axis -90 7.62852e-016 20   XYZ
    dof rx rz
    limits (-45.0 90.0)
           (-70.0 20.0)
  end
  begin
     id 5 
     name ltoes
     direction 1.53561e-011 -4.21864e-011 1   
     length 0.925608   
     axis -90 7.62852e-016 20   XYZ
    dof rx
    limits (-90.0 20.0)
  end
  begin
     id 6 
     name rhipjoint
     direction -0.609094 -0.738725 0.288599   
     length 2.48624  
     axis 0 0 0  XYZ 
  end
  begin
     id 7 
     name rfemur
     direction -0.34202 -0.939693 0   
     length 7.44259   
     axis 0 0 -20   XYZ
    dof rx ry rz
    limits (-160.0 20.0)
           (-70.0 70.0)
           (-70.0 60.0)
  end
  begin
     id 8 
     name rtibia
     direction -0.34202 -0.939693 0   
     length 7.7781   
     axis 0 0 -20   XYZ
    dof rx
    limits (-10.0 170.0)
 end
 begin
     id 9 
     name rfoot
     direction -0.107015 -0.294021 0.949789   
     length 2.14741  
     axis -90 -7.62852e-016 -20   XYZ
    dof rx rz
    limits (-45.0 90.0)
           (-20.0 70.0)
  end
  begin
     id 10 
     name rtoes
     direction -1.53497e-011 -4.21924e-011 1   
     length 1.0706   
     axis -90 -7.62852e-016 -20   XYZ
    dof rx
    limits (-90.0 20.0)
  end
  begin
     id 11 
     name lowerback
     direction -0.0142066 0.998112 -0.0597545   
     length 1.86627   
     axis 0 0 0   XYZ
    dof rx ry rz
    limits (-20.0 45.0)
           (-30.0 30.0)
           (-30.0 30.0)
  end
  begin
     id 12 
     name upperback
     direction 0.00547294 0.999744 0.0219437   
     length 1.86272   
     axis 0 0 0   XYZ
    dof rx ry rz
    limits (-20.0 45.0)
           (-30.0 30.0)
           (-30.0 30.0)
  end
  begin
     id 13 
     name thorax
     direction 0.0116162 0.998704 0.0495538   
     length 1.8703   
     axis 0 0 0   XYZ
    dof rx ry rz
    limits (-20.0 45.0)
           (-30.0 30.0)
           (-30.0 30.0)
  end
  begin
     id 14 
     name lowerneck
     direction -0.0106574 0.998739 0.0490586   
     length 1.8074   
     axis 0 0 0   XYZ
    dof rx ry rz
    limits (-20.0 45.0)
           (-30.0 30.0)
           (-30.0 30.0)
  end
  begin
     id 15 
     name upperneck
     direction 0.030527 0.976587 -0.212944   
     length 1.80681   
     axis 0 0 0   XYZ
    dof rx ry rz
    limits (-20.0 45.0)
           (-30.0 30.0)
           (-30.0 30.0)
  end
  begin
     id 16
     name head
     direction 0.00869225 0.997035 -0.0764531  
     length 1.8313  
     axis 0 0 0   XYZ
    dof rx ry rz
    limits (-20.0 45.0)
           (-30.0 30.0)
           (-30.0 30.0)
  end
  begin
     id 17 
     name lclavicle
     direction 0.915958 0.399447 0.0382386  
     length 3.78965  
     axis 0 0 0   XYZ
    dof ry rz
    limits (-20.0 10.0)
           (0.0 20.0)
  end
  begin
     id 18 
     name lhumerus
     direction 1 -4.48967e-011 3.19303e-027   
     length 4.78095   
     axis -180 -30 -90   XYZ
    dof rx ry rz
    limits (-60.0 90.0)
           (-90.0 90.0)
           (-90.0 90.0)
  end
  begin
     id 19
     name lradius
     direction 1 -4.48967e-011 -3.77974e-027   
     length 3.58615   
     axis -180 -30 -90   XYZ
    dof rx
    limits (-10.0 170.0)
  end
  begin
     id 20
     name lwrist
     direction 1 -4.48927e-011 1.2807e-027   
     length 1.79307   
     axis 1.91374e-015 90 90   XYZ
    dof ry
    limits (-180.0 0.0)
 end
  begin
     id 21 
     name lhand
     direction 1 -4.49036e-011 2.5614e-027   
     length 0.659812   
     axis -1.63439e-015 90 90   XYZ
    dof rx rz
    limits (-90.0 90.0)
           (-45.0 45.0)
  end
  begin
     id 22 
     name lfingers
     direction 1 -4.49052e-011 5.1228e-027   
     length 0.531957   
     axis -3.26879e-015 90 90   XYZ
    dof rx
    limits (0.0 90.0)
  end
  begin
     id 23
     name lthumb
     direction 0.707107 -6.35012e-011 0.707107   
     length 0.763787   
     axis -90 45 2.85299e-015   XYZ
    dof rx rz
    limits (-45.0 45.0)
           (-45.0 45.0)
  end
  begin
     id 24 
     name rclavicle
     direction -0.895351 0.435135 0.0948887   
     length 3.70497  
     axis 0 0 0   XYZ 
    dof ry rz
    limits (-10.0 20.0)
           (-20.0 0.0)
  end
  begin
     id 25 
     name rhumerus
     direction -1 -4.48971e-011 2.38946e-027  
     length 4.48913   
     axis -180 30 90   XYZ
    dof rx ry rz
    limits (-90.0 60.0)
           (-90.0 90.0)
           (-90.0 90.0)
  end
  begin
     id 26 
     name rradius
     direction -1 -4.4895e-011 4.38668e-027   
     length 3.7051   
     axis -180 30 90   XYZ
    dof rx
    limits (-10.0 170.0)
  end
  begin
     id 27 
     name rwrist
     direction -1 -4.49007e-011 1.2807e-027   
     length 1.85255   
     axis 1.91374e-015 -90 -90   XYZ
    dof ry
    limits (-180.0 0.0)
  end
  begin
     id 28
     name rhand
     direction -1 -4.48851e-011 2.5614e-027   
     length 0.449136   
     axis -1.63439e-015 -90 -90   XYZ
    dof rx rz
    limits (-90.0 90.0)
           (-45.0 45.0)
  end
  begin
     id 29
     name rfingers
     direction -1 -4.49128e-011 5.1228e-027   
     length 0.362105   
     axis -3.26879e-015 -90 -90   XYZ
    dof rx
    limits (0.0 90.0)
  end
  begin
     id 30
     name rthumb
     direction -0.707107 -6.34851e-011 0.707107   
     length 0.519912   
     axis -90 -45 -2.85299e-015   XYZ
    dof rx rz
    limits (-45.0 45.0)
           (-45.0 45.0)
  end
:hierarchy
  begin
    root lhipjoint rhipjoint lowerback
    lhipjoint lfemur
    lfemur ltibia
    ltibia lfoot
    lfoot ltoes
    rhipjoint rfemur
    rfemur rtibia
    rtibia rfoot
    rfoot rtoes
    lowerback upperback
    upperback thorax
    thorax lowerneck lclavicle rclavicle
    lowerneck upperneck
    upperneck head
    lclavicle lhumerus
    lhumerus lradius
    lradius lwrist
    lwrist lhand lthumb
    lhand lfingers
    rclavicle rhumerus
    rhumerus rradius
    rradius rwrist
    rwrist rhand rthumb
    rhand rfingers
  end

#!OML:ASF I:\Actors\actors\Patient Classification 2\Patient 1\Session 1\actor1.ASF
:FULLY-SPECIFIED
:DEGREES
62
root -0.682807 18.6252 6.49472 -0.0839888 -2.22653 -3.16598
lowerback 8.64523 1.22717 2.02028
upperback -1.85978 1.89176 0.413634
thorax -6.75658 0.85572 -0.972865
lowerneck -10.4426 -1.83709 0.139513
upperneck 23.1171 -2.9134 1.30162
head 8.96832 -1.21866 0.106146
rclavicle 4.77782e-015 4.17448e-015
rhumerus -53.6255 -9.93266 -83.6421
rradius 42.5506
rwrist 3.79273
rhand -11.9848 -32.8928
rfingers 7.12502
rthumb 14.0716 -62.3964
lclavicle 4.77782e-015 4.17448e-015
lhumerus -44.1585 7.77029 87.6607
lradius 40.0349
lwrist 0.616346
lhand -8.5306 -20.4899
lfingers 7.12502
lthumb 17.3982 8.75149
rfemur 10.8284 3.54052 18.4407
rtibia 1.43125e-014
rfoot -22.6011 -13.9332
rtoes -0.702461
lfemur -2.74309 -2.49357 -12.3201
ltibia 24.153
lfoot -25.406 12.5602
ltoes -55.0964
63
root -0.683333 18.6255 6.50059 -0.065581 -2.23686 -3.15919
lowerback 8.6259 1.21663 1.97828
upperback -1.8366 1.8735 0.435389
thorax -6.72346 0.849503 -0.92306
lowerneck -10.4626 -1.80816 0.122137
upperneck 23.0826 -2.86185 1.27275
head 8.95949 -1.19925 0.104741
rclavicle 1.15388e-015 4.37326e-015
rhumerus -53.5798 -9.81578 -83.6809
rradius 42.5555
rwrist 3.69876
rhand -12.0783 -32.7451
rfingers 7.12502
rthumb 13.9815 -62.2549
lclavicle 1.15388e-015 4.37326e-015
lhumerus -44.1494 7.8473 87.6641
lradius 40.0975
lwrist 0.632389
lhand -8.53323 -20.5014
lfingers 7.12502
lthumb 17.3957 8.74022
rfemur 10.8307 3.54957 18.4399
rtibia 2.38542e-014
rfoot -22.5766 -13.9559
rtoes -0.876545
lfemur -2.73949 -2.47048 -12.3223
ltibia 24.1453
lfoot -25.4138 12.5571
ltoes -55.1459
64
root -0.682951 18.6254 6.50713 -0.0225346 -2.23452 -3.1357
lowerback 8.86363 1.2278 2.08249
upperback -2.03595 1.90441 0.349093
thorax -7.0647 0.852482 -1.08596
lowerneck -10.36 -1.83505 0.0488677
upperneck 23.2483 -2.91792 1.39871
head 9.00125 -1.21767 0.1543
rclavicle -2.35917e-014 1.98785e-016
rhumerus -53.9007 -9.86025 -83.7045
rradius 42.5689
rwrist 3.65321
rhand -12.1173 -32.7238
rfingers 7.12502
rthumb 13.944 -62.2362
lclavicle -2.35917e-014 1.98785e-016
lhumerus -44.4639 7.75142 87.5482
lradius 40.1309
lwrist 0.565015
lhand -8.6039 -20.4655
lfingers 7.12502
lthumb 17.3277 8.78206
rfemur 10.8089 3.54597 18.4101
rtibia 2.8625e-014
rfoot -22.6052 -13.9128
rtoes -0.700522
lfemur -2.76508 -2.42579 -12.342
ltibia 24.1449
lfoot -25.4008 12.532
ltoes -55.1799
65
root -0.682628 18.6241 6.51573 0.00185991 -2.1966 -3.13328
lowerback 8.96322 1.22432 2.15882
upperback -2.12842 1.90962 0.299701
thorax -7.21632 0.847764 -1.18568
lowerneck -10.3607 -1.8578 -0.0638336
upperneck 23.3812 -2.97315 1.57671
head 9.05276 -1.2332 0.227428
rclavicle -6.59717e-015 -6.36111e-015
rhumerus -54.062 -9.92023 -83.7111
rradius 42.5687
rwrist 3.69815
rhand -12.076 -32.829
rfingers 7.12502
rthumb 13.9838 -62.3387
lclavicle -6.59717e-015 -6.36111e-015
lhumerus -44.5966 7.70974 87.4719
lradius 40.0801
lwrist 0.453787
lhand -8.61917 -20.4321
lfingers 7.12502
lthumb 17.313 8.81678
rfemur 10.8221 3.50714 18.4022
rtibia -4.45278e-014
rfoot -22.6509 -13.8712
rtoes -0.603608
lfemur -2.77434 -2.40933 -12.3425
ltibia 24.155
lfoot -25.3548 12.4767
ltoes -55.1227
66
root -0.683079 18.6225 6.52309 0.026939 -2.15612 -3.16704
lowerback 8.95736 1.21041 2.17932
upperback -2.12439 1.89456 0.319176
thorax -7.20923 0.840101 -1.17427
lowerneck -10.4084 -1.8609 -0.158991
upperneck 23.4125 -2.99198 1.71169
head 9.0766 -1.23534 0.286813
rclavicle -1.04471e-014 1.78906e-015
rhumerus -54.0398 -9.93794 -83.6911
rradius 42.5601
rwrist 3.74628
rhand -11.9902 -32.877
rfingers 7.12502
rthumb 14.0665 -62.381
lclavicle -1.04471e-014 1.78906e-015
lhumerus -44.5612 7.73051 87.4799
lradius 40.0369
lwrist 0.426935
lhand -8.55985 -20.4742
lfingers 7.12502
lthumb 17.3701 8.76964
rfemur 10.827 3.46521 18.4409
rtibia 1.43125e-014
rfoot -22.6196 -13.8869
rtoes -0.876687
lfemur -2.79636 -2.39582 -12.2975
ltibia 24.1714
lfoot -25.2265 12.482
ltoes -54.9758
67
root -0.682446 18.6209 6.53055 0.0386584 -2.16608 -3.14955
lowerback 8.99728 1.22061 2.15318
upperback -2.12577 1.90713 0.331748
thorax -7.23445 0.847279 -1.14936
lowerneck -10.3807 -1.86984 -0.0825297
upperneck 23.3641 -2.99551 1.61628
head 9.05178 -1.2411 0.241475
rclavicle -1.62708e-014 -6.95746e-015
rhumerus -54.0006 -9.97359 -83.6378
rradius 42.5096
rwrist 3.79423
rhand -11.9374 -32.8415
rfingers 7.12502
rthumb 14.1173 -62.3419
lclavicle -1.62708e-014 -6.95746e-015
lhumerus -44.5202 7.72074 87.5283
lradius 40.0127
lwrist 0.458878
lhand -8.58083 -20.4851
lfingers 7.12502
lthumb 17.3499 8.76048
rfemur 10.8364 3.47494 18.4163
rtibia 1.74931e-014
rfoot -22.5824 -13.892
rtoes -1.17553
lfemur -2.78945 -2.34403 -12.3131
ltibia 24.188
lfoot -25.1825 12.5465
ltoes -54.9903
68
root -0.682062 18.6189 6.53939 0.00248459 -2.19887 -3.10957
lowerback 9.07924 1.24579 2.11598
upperback -2.12246 1.93734 0.31486
thorax -7.2776 0.862609 -1.15298
lowerneck -10.2708 -1.87538 0.126885
upperneck 23.259 -2.99491 1.42117
head 8.98813 -1.24506 0.141438
rclavicle 7.31621e-015 1.98785e-015
rhumerus -54.0013 -10.0576 -83.5998
rradius 42.4681
rwrist 3.87833
rhand -11.9755 -32.8213
rfingers 7.12502
rthumb 14.0806 -62.3243
lclavicle 7.31621e-015 1.98785e-015
lhumerus -44.5202 7.65922 87.5454
lradius 40.0293
lwrist 0.446989
lhand -8.70303 -20.382
lfingers 7.12502
lthumb 17.2323 8.87398
rfemur 10.899 3.50914 18.3652
rtibia 7.95139e-015
rfoot -22.6137 -13.8443
rtoes -1.1117
lfemur -2.7196 -2.33574 -12.3676
ltibia 24.2045
lfoot -25.3433 12.4488
ltoes -55.107
69
root -0.68304 18.6171 6.54657 -0.0287122 -2.20191 -3.12558
lowerback 9.02719 1.2289 2.05894
upperback -2.02448 1.90688 0.344062
thorax -7.14688 0.853367 -1.08272
lowerneck -10.2154 -1.83747 0.184152
upperneck 23.1179 -2.94739 1.41303
head 8.92766 -1.22062 0.135236
rclavicle -6.91476e-015 -2.78299e-015
rhumerus -53.8987 -9.96113 -83.6593
rradius 42.537
rwrist 3.85259
rhand -12.0197 -32.7816
rfingers 7.12502
rthumb 14.0381 -62.2875
lclavicle -6.91476e-015 -2.78299e-015
lhumerus -44.4254 7.69598 87.5567
lradius 40.076
lwrist 0.440064
lhand -8.78326 -20.2804
lfingers 7.12502
lthumb 17.1551 8.98224
rfemur 10.9549 3.5126 18.3853
rtibia 1.43125e-014
rfoot -22.6796 -13.7933
rtoes -0.888481
lfemur -2.66543 -2.4145 -12.3622
ltibia 24.2191
lfoot -25.4554 12.2819
ltoes -55.0213
70
root -0.683697 18.615 6.55426 0.0165611 -2.1736 -3.14837
lowerback 8.7416 1.17858 1.95689
upperback -1.82957 1.82192 0.417264
thorax -6.78374 0.823844 -0.925679
lowerneck -10.3427 -1.78613 0.0728084
upperneck 23.0009 -2.87719 1.52004
head 8.91403 -1.18648 0.196819
rclavicle 2.36371e-014 6.55989e-015
rhumerus -53.6243 -9.67418 -83.7977
rradius 42.6474
rwrist 3.71645
rhand -12.0274 -32.7114
rfingers 7.12502
rthumb 14.0306 -62.2178
lclavicle 2.36371e-014 6.55989e-015
lhumerus -44.1513 7.82544 87.6238
lradius 40.0679
lwrist 0.484066
lhand -8.73845 -20.3333
lfingers 7.12502
lthumb 17.1982 8.92565
rfemur 10.9356 3.48279 18.4043
rtibia -1.90833e-014
rfoot -22.7602 -13.7023
rtoes -0.6573
lfemur -2.69292 -2.49353 -12.3423
ltibia 24.2332
lfoot -25.4643 12.2138
ltoes -54.8904
71
root -0.683545 18.6127 6.56448 0.0873975 -2.15188 -3.14154
lowerback 8.54058 1.17475 1.90829
upperback -1.7164 1.805 0.428132
thorax -6.55087 0.821391 -0.87781
lowerneck -10.4755 -1.78986 0.0166713
upperneck 22.9454 -2.89273 1.61271
head 8.92228 -1.18848 0.234841
rclavicle -3.44767e-016 2.5842e-015
rhumerus -53.4679 -9.50582 -83.9387
rradius 42.7755
rwrist 3.61645
rhand -11.9772 -32.7453
rfingers 7.12502
rthumb 14.0789 -62.2484
lclavicle -3.44767e-016 2.5842e-015
lhumerus -43.9291 7.74669 87.6998
lradius 40.0417
lwrist 0.519326
lhand -8.59314 -20.3197
lfingers 7.12502
lthumb 17.338 8.92698
rfemur 10.8945 3.45941 18.3822
rtibia 2.54444e-014
rfoot -22.8056 -13.6143
rtoes -0.621553
lfemur -2.73404 -2.58505 -12.3678
ltibia 24.2437
lfoot -25.5287 12.2627
ltoes -54.9157
72
root -0.683238 18.6104 6.5747 0.0906682 -2.16766 -3.13304
lowerback 8.55905 1.20526 1.90961
upperback -1.67779 1.84399 0.402641
thorax -6.51856 0.840555 -0.910549
lowerneck -10.4941 -1.82136 0.0132576
upperneck 22.8848 -2.95462 1.69744
head 8.90702 -1.20939 0.257477
rclavicle 7.22458e-015 -3.77691e-015
rhumerus -53.4326 -9.35117 -84.1132
rradius 42.9736
rwrist 3.5268
rhand -11.8155 -32.9103
rfingers 7.12502
rthumb 14.2348 -62.4024
lclavicle 7.22458e-015 -3.77691e-015
lhumerus -43.7712 7.44758 87.7929
lradius 40.0245
lwrist 0.540147
lhand -8.39532 -20.1831
lfingers 7.12502
lthumb 17.5284 9.04664
rfemur 10.917 3.475 18.3689
rtibia -1.11319e-014
rfoot -22.771 -13.6297
rtoes -1.23572
lfemur -2.69057 -2.73216 -12.4151
ltibia 24.2518
lfoot -25.6772 12.3865
ltoes -54.9353
73
root -0.681845 18.607 6.58763 0.0575365 -2.26131 -3.11268
lowerback 9.0733 1.27856 2.0881
upperback -1.97387 1.97018 0.247838
thorax -7.11298 0.881639 -1.21004
lowerneck -10.202 -1.91238 0.0540738
upperneck 23.0215 -3.12368 1.8336
head 8.90324 -1.2718 0.281372
rclavicle -6.52527e-015 5.96354e-016
rhumerus -53.9802 -9.20448 -84.3942
rradius 43.3141
rwrist 3.32178
rhand -11.6716 -33.246
rfingers 7.12502
rthumb 14.3735 -62.7283
lclavicle -6.52527e-015 5.96354e-016
lhumerus -44.1424 6.73021 87.8255
lradius 40.0729
lwrist 0.664953
lhand -8.19903 -20.1189
lfingers 7.12502
lthumb 17.7173 9.09389
rfemur 10.9737 3.56958 18.3439
rtibia 1.59028e-015
rfoot -22.7566 -13.6422
rtoes -1.77303
lfemur -2.58825 -2.84242 -12.484
ltibia 24.2718
lfoot -25.8499 12.5141
ltoes -54.8559
